<?xml version="1.0" encoding="UTF-8"?>
<svg id="Layer_2" data-name="Layer 2" xmlns="http://www.w3.org/2000/svg" viewBox="0 0 461.47 99.74">
  <defs>
    <style>
      .cls-1 {
        fill: #6c3082;
      }

      .cls-2 {
        fill: #20b2aa;
      }

      .cls-3 {
        fill: #8390fa;
      }
    </style>
  </defs>
  <g id="Layer_2-2" data-name="Layer 2">
    <g id="Layer_1-2" data-name="Layer 1-2">
      <g>
        <g>
          <path class="cls-2" d="M109.1,84.48c0-.64.32-.96.96-.96h3.49c.98,0,1.87.14,2.68.42.8.28,1.48.69,2.04,1.22s.99,1.19,1.3,1.96c.3.78.46,1.66.46,2.64s-.15,1.87-.46,2.65c-.3.78-.74,1.44-1.3,1.98s-1.24.95-2.04,1.24-1.69.43-2.68.43h-3.49c-.64,0-.96-.32-.96-.96v-10.62ZM113.43,93.43c1.06,0,1.9-.31,2.51-.93s.91-1.53.91-2.74-.31-2.11-.93-2.71-1.45-.9-2.49-.9h-1.26v7.28s1.26,0,1.26,0Z"/>
          <path class="cls-2" d="M120.82,91.53c0-.67.11-1.29.33-1.86s.53-1.07.93-1.49.9-.75,1.48-1,1.24-.37,1.97-.37c.67,0,1.26.11,1.78.33s.96.53,1.32.91c.36.39.63.84.81,1.37.18.53.27,1.09.27,1.7,0,.23-.09.46-.28.68s-.43.32-.74.32h-4.75c.12.56.37.96.77,1.21.4.25.84.38,1.33.38.3,0,.6-.04.88-.12s.54-.18.77-.3c.29-.13.54-.17.75-.12.21.05.39.21.54.49l.25.46c.14.27.19.52.14.75s-.21.42-.47.57c-.33.19-.75.37-1.27.55s-1.13.27-1.83.27c-.81,0-1.52-.13-2.14-.4-.62-.27-1.14-.62-1.55-1.06s-.73-.94-.95-1.52c-.22-.57-.33-1.16-.33-1.75h0ZM126.7,90.39c0-.37-.11-.69-.33-.96-.22-.26-.53-.39-.91-.39-.45,0-.78.13-1,.4-.22.27-.38.58-.46.95h2.7Z"/>
          <path class="cls-2" d="M130.94,87.99c0-.64.32-.97.97-.97h.98c.63,0,.95.32.95.97v.39h.04c.11-.15.24-.32.39-.51.16-.19.35-.36.57-.51s.48-.28.76-.39c.29-.11.61-.16.96-.16.57,0,1.08.13,1.52.38s.78.63,1.01,1.15h.03c.12-.19.27-.37.47-.55.19-.18.41-.34.66-.49s.52-.26.82-.35.62-.13.96-.13c.41,0,.79.06,1.15.18s.67.31.93.58c.26.27.47.62.62,1.05s.23.96.23,1.58v4.9c0,.64-.32.96-.96.96h-1.11c-.64,0-.97-.32-.97-.96v-4.39c0-.34-.04-.61-.13-.83-.09-.21-.28-.32-.57-.32-.33,0-.6.08-.83.23-.22.15-.4.35-.54.6-.13.25-.23.53-.29.85s-.09.65-.09.99v2.86c0,.64-.32.96-.96.96h-1.11c-.64,0-.97-.32-.97-.96v-4.39c0-.34-.04-.61-.13-.83-.09-.21-.28-.32-.57-.32-.35,0-.64.08-.86.25-.22.16-.4.37-.53.62s-.22.54-.27.85c-.05.32-.08.63-.08.95v2.86c0,.64-.32.96-.96.96h-1.11c-.64,0-.97-.32-.97-.96v-7.11h0Z"/>
          <path class="cls-2" d="M146.08,91.57c0-.71.13-1.36.4-1.95.27-.58.63-1.08,1.1-1.5.46-.42,1-.74,1.62-.96.62-.23,1.28-.34,1.98-.34s1.38.11,2.01.34c.63.23,1.17.55,1.63.96.46.42.83.92,1.1,1.5s.4,1.23.4,1.95-.13,1.34-.4,1.92c-.27.58-.63,1.08-1.1,1.49s-1,.73-1.62.96c-.62.22-1.29.33-2,.33s-1.38-.11-2-.33-1.16-.54-1.62-.96c-.46-.42-.83-.91-1.1-1.49-.27-.58-.4-1.22-.4-1.92ZM149.15,91.57c0,.34.05.64.17.91.11.27.26.49.45.68s.4.33.65.43.51.15.79.15.54-.05.79-.15.46-.24.65-.43c.19-.19.34-.41.45-.68s.17-.57.17-.91-.06-.64-.17-.91c-.11-.27-.26-.5-.45-.7-.19-.19-.4-.34-.65-.44-.25-.1-.51-.16-.79-.16s-.54.05-.79.16c-.25.1-.46.25-.65.44-.19.19-.34.42-.45.7-.11.27-.17.58-.17.91Z"/>
          <path class="cls-2" d="M157.1,91.53c0-.61.11-1.2.33-1.76.22-.57.55-1.07.97-1.51s.95-.79,1.58-1.05,1.34-.39,2.15-.39c.69,0,1.28.08,1.75.26s.87.36,1.16.56c.25.17.38.36.41.59.03.23-.04.47-.2.73l-.3.46c-.16.27-.35.42-.56.45-.21.03-.46-.03-.74-.17-.17-.09-.37-.17-.6-.24-.22-.06-.47-.1-.74-.1-.36,0-.68.06-.95.18s-.49.29-.67.49-.32.43-.4.69c-.09.26-.13.52-.13.78s.05.53.14.8c.09.27.23.5.42.71s.42.38.7.51c.28.13.61.2,1,.2.3,0,.6-.05.88-.16s.53-.22.75-.35c.29-.16.55-.22.76-.17s.4.22.55.51l.23.44c.13.27.17.52.14.74-.04.22-.17.42-.4.58-.32.21-.74.42-1.28.64-.54.21-1.18.32-1.93.32-.81,0-1.52-.13-2.15-.39-.63-.26-1.15-.61-1.58-1.04s-.75-.94-.97-1.52c-.22-.57-.33-1.17-.33-1.79h0Z"/>
          <path class="cls-2" d="M166.89,87.99c0-.64.32-.97.97-.97h.98c.64,0,.96.32.96.97v.95c0,.06-.02.12-.02.18h.04c.07-.23.18-.48.33-.74.15-.26.33-.49.54-.7.21-.21.45-.39.71-.53.26-.14.54-.21.82-.21.3,0,.52.08.64.25.12.16.18.4.18.72v.98c0,.64-.32.96-.96.96-.36,0-.68.07-.95.22s-.49.34-.67.59-.31.53-.39.86c-.09.33-.13.67-.13,1.04v2.54c0,.64-.32.96-.96.96h-1.11c-.64,0-.97-.32-.97-.96v-7.11h0Z"/>
          <path class="cls-2" d="M173.23,93.52c0-.61.16-1.11.48-1.51.32-.4.73-.71,1.24-.95.5-.23,1.05-.4,1.65-.49s1.18-.14,1.74-.14h.26v-.16c0-.38-.13-.63-.39-.78s-.56-.22-.89-.22c-.29,0-.58.04-.86.12s-.54.18-.77.28c-.6.26-1.03.12-1.3-.42l-.21-.44c-.13-.27-.16-.52-.11-.75.06-.23.22-.41.49-.55.34-.16.77-.32,1.28-.47s1.1-.23,1.75-.23c1.25,0,2.24.32,2.96.97s1.08,1.55,1.08,2.71v4.6c0,.64-.32.96-.96.96h-.84c-.64,0-.96-.33-.96-.98v-.19s0-.04.02-.05h-.04c-.17.27-.39.51-.65.72-.22.19-.5.35-.84.5s-.73.22-1.18.22-.83-.07-1.19-.21-.67-.33-.93-.58-.46-.54-.61-.88-.22-.7-.22-1.09h0ZM176.23,93.24c0,.21.07.39.22.54s.36.23.64.23c.22,0,.43-.05.61-.15.19-.1.35-.22.49-.38.14-.15.25-.32.33-.51s.11-.38.11-.56v-.25h-.28c-.23,0-.48.02-.73.05-.25.04-.48.09-.68.18-.21.08-.38.19-.51.32s-.2.31-.2.52h0Z"/>
          <path class="cls-2" d="M183.77,89.55h-.26c-.63,0-.95-.32-.95-.96v-.44c0-.64.32-.96.97-.96h.33v-1.63c0-.64.32-.96.96-.96h1.02c.64,0,.97.32.97.96v1.63h.93c.64,0,.96.32.96.96v.44c0,.64-.32.96-.95.96h-.95v2.74c0,.39.11.66.32.83.22.17.46.27.73.31.35.05.6.13.75.26.15.13.22.36.22.7v.79c0,.36-.11.61-.32.75s-.52.21-.93.21c-.34,0-.73-.05-1.16-.14s-.85-.26-1.25-.51-.73-.58-1-1.01-.4-.97-.4-1.64v-3.3h0Z"/>
          <path class="cls-2" d="M190.16,87.99c0-.64.32-.97.97-.97h1.11c.64,0,.96.32.96.97v7.11c0,.64-.32.96-.96.96h-1.11c-.64,0-.97-.32-.97-.96v-7.11ZM191.16,85.88c-.64,0-.97-.32-.97-.97v-.44c0-.64.32-.96.97-.96h1.04c.64,0,.96.32.96.96v.44c0,.64-.32.97-.96.97h-1.04Z"/>
          <path class="cls-2" d="M194.99,95.45c-.27-.15-.42-.34-.45-.58-.03-.23.04-.49.2-.75l.26-.4c.18-.26.37-.4.57-.44.21-.04.46.02.76.16.22.09.47.2.75.31s.6.17.96.17c.3,0,.52-.05.64-.15s.18-.22.18-.36c0-.18-.11-.32-.32-.42-.21-.11-.47-.21-.78-.31s-.65-.21-1.02-.33-.71-.29-1.02-.51-.57-.5-.78-.84c-.21-.34-.32-.78-.32-1.31,0-.47.1-.88.29-1.24.19-.36.46-.66.8-.89.34-.24.74-.42,1.19-.54.46-.12.95-.18,1.47-.18.57,0,1.07.06,1.5.19.43.13.78.26,1.06.39.27.13.43.31.47.54.05.23,0,.49-.12.75l-.21.42c-.13.28-.3.45-.51.51-.21.06-.47.03-.77-.09-.21-.08-.45-.16-.7-.24-.26-.08-.54-.11-.84-.11-.33,0-.54.05-.65.14s-.16.21-.16.33c0,.17.11.31.32.41.21.1.47.2.78.3.31.1.65.21,1.02.33s.71.28,1.02.5.57.49.78.82c.21.33.32.76.32,1.29,0,.42-.08.81-.25,1.18-.17.36-.42.68-.74.94s-.71.47-1.18.62-.98.23-1.55.23c-.68,0-1.27-.09-1.77-.27s-.91-.37-1.23-.55l.03-.02Z"/>
          <path class="cls-2" d="M203.06,87.99c0-.64.32-.97.97-.97h1.11c.64,0,.96.32.96.97v7.11c0,.64-.32.96-.96.96h-1.11c-.64,0-.97-.32-.97-.96v-7.11ZM204.06,85.88c-.64,0-.97-.32-.97-.97v-.44c0-.64.32-.96.97-.96h1.04c.64,0,.96.32.96.96v.44c0,.64-.32.97-.96.97h-1.04Z"/>
          <path class="cls-2" d="M207.88,87.99c0-.64.32-.97.97-.97h.98c.63,0,.95.32.95.97v.39h.04c.11-.18.24-.36.4-.54.16-.19.36-.35.6-.5s.51-.27.82-.37c.31-.1.66-.15,1.06-.15.46,0,.88.06,1.28.18s.74.31,1.03.57.51.61.68,1.04.25.96.25,1.6v4.9c0,.64-.32.96-.96.96h-1.11c-.64,0-.97-.32-.97-.96v-4.33c0-.42-.08-.73-.25-.91-.16-.19-.42-.28-.75-.28s-.63.06-.88.19c-.25.13-.45.3-.61.53-.16.22-.28.48-.36.77-.08.29-.11.6-.11.91v3.12c0,.64-.32.96-.96.96h-1.11c-.64,0-.97-.32-.97-.96v-7.11h-.02Z"/>
          <path class="cls-2" d="M219.52,97.52c.12-.31.27-.5.46-.59s.44-.08.77.03c.22.07.46.13.71.18s.55.07.9.07c.28,0,.55-.03.81-.09s.48-.15.68-.28c.19-.13.35-.3.46-.52.12-.22.18-.5.18-.84v-.67s0-.09.02-.12h-.04c-.25.36-.54.64-.89.83-.34.19-.79.28-1.32.28-.69,0-1.3-.13-1.82-.39s-.95-.6-1.29-1.02-.59-.9-.76-1.45c-.17-.54-.25-1.11-.25-1.69s.08-1.13.25-1.66c.16-.53.42-1.01.76-1.42.35-.42.78-.75,1.3-.99.52-.25,1.13-.37,1.83-.37.49,0,.89.06,1.2.18s.56.26.76.41c.21.17.38.37.51.58h.04s-.02-.03-.02-.05v-.16c0-.21.08-.39.25-.54.16-.15.4-.22.72-.22h.83c.64,0,.96.32.96.97v7.25c0,.83-.15,1.53-.46,2.1-.3.57-.7,1.03-1.18,1.39s-1.01.62-1.61.78c-.59.16-1.17.24-1.75.24-.53,0-1.04-.04-1.54-.13s-.88-.19-1.15-.31c-.57-.24-.75-.65-.53-1.25l.19-.53h.02ZM222.92,93.25c.2,0,.4-.03.59-.09s.37-.16.53-.3.28-.34.38-.6c.09-.25.14-.58.14-.97s-.05-.72-.15-.96c-.1-.25-.23-.45-.39-.59s-.34-.24-.56-.29-.44-.08-.66-.08c-.54,0-.94.17-1.21.5-.27.34-.4.76-.4,1.29,0,.28.04.54.1.8.07.25.18.48.32.67s.32.34.54.46c.22.12.48.17.78.17h-.01Z"/>
          <path class="cls-2" d="M234.64,97.52c.12-.31.27-.5.46-.59s.44-.08.77.03c.22.07.46.13.71.18s.55.07.9.07c.28,0,.55-.03.81-.09s.48-.15.68-.28c.19-.13.35-.3.46-.52.12-.22.18-.5.18-.84v-.67s0-.09.02-.12h-.04c-.25.36-.54.64-.89.83-.34.19-.79.28-1.32.28-.69,0-1.3-.13-1.82-.39s-.95-.6-1.29-1.02-.59-.9-.76-1.45c-.17-.54-.25-1.11-.25-1.69s.08-1.13.25-1.66c.16-.53.42-1.01.76-1.42.35-.42.78-.75,1.3-.99.52-.25,1.13-.37,1.83-.37.49,0,.89.06,1.2.18s.56.26.76.41c.21.17.38.37.51.58h.04s-.02-.03-.02-.05v-.16c0-.21.08-.39.25-.54.16-.15.4-.22.72-.22h.83c.64,0,.96.32.96.97v7.25c0,.83-.15,1.53-.46,2.1-.3.57-.7,1.03-1.18,1.39s-1.01.62-1.61.78c-.59.16-1.17.24-1.75.24-.53,0-1.04-.04-1.54-.13s-.88-.19-1.15-.31c-.57-.24-.75-.65-.53-1.25l.19-.53h.02ZM238.04,93.25c.2,0,.4-.03.59-.09s.37-.16.53-.3.28-.34.38-.6c.09-.25.14-.58.14-.97s-.05-.72-.15-.96c-.1-.25-.23-.45-.39-.59s-.34-.24-.56-.29-.44-.08-.66-.08c-.54,0-.94.17-1.21.5-.27.34-.4.76-.4,1.29,0,.28.04.54.1.8.07.25.18.48.32.67s.32.34.54.46c.22.12.48.17.78.17h-.01Z"/>
          <path class="cls-2" d="M243.94,91.57c0-.71.13-1.36.4-1.95.27-.58.63-1.08,1.1-1.5.46-.42,1-.74,1.62-.96.62-.23,1.28-.34,1.98-.34s1.38.11,2.01.34c.63.23,1.17.55,1.63.96.46.42.83.92,1.1,1.5s.4,1.23.4,1.95-.13,1.34-.4,1.92c-.27.58-.63,1.08-1.1,1.49s-1,.73-1.62.96c-.62.22-1.29.33-2,.33s-1.38-.11-2-.33-1.16-.54-1.62-.96c-.46-.42-.83-.91-1.1-1.49-.27-.58-.4-1.22-.4-1.92ZM247.01,91.57c0,.34.05.64.17.91.11.27.26.49.45.68s.4.33.65.43.51.15.79.15.54-.05.79-.15.46-.24.65-.43c.19-.19.34-.41.45-.68s.17-.57.17-.91-.06-.64-.17-.91c-.11-.27-.26-.5-.45-.7-.19-.19-.4-.34-.65-.44-.25-.1-.51-.16-.79-.16s-.54.05-.79.16c-.25.1-.46.25-.65.44-.19.19-.34.42-.45.7-.11.27-.17.58-.17.91Z"/>
          <path class="cls-2" d="M254.96,91.57c0-.71.13-1.36.4-1.95.27-.58.63-1.08,1.1-1.5.46-.42,1-.74,1.62-.96.62-.23,1.28-.34,1.98-.34s1.38.11,2.01.34c.63.23,1.17.55,1.63.96.46.42.83.92,1.1,1.5.27.58.4,1.23.4,1.95s-.13,1.34-.4,1.92-.63,1.08-1.1,1.49-1,.73-1.62.96c-.62.22-1.29.33-2,.33s-1.38-.11-2-.33-1.16-.54-1.62-.96-.83-.91-1.1-1.49c-.27-.58-.4-1.22-.4-1.92h0ZM258.03,91.57c0,.34.05.64.17.91.11.27.26.49.45.68s.4.33.65.43.51.15.79.15.54-.05.79-.15.46-.24.65-.43.34-.41.45-.68c.11-.27.17-.57.17-.91s-.06-.64-.17-.91c-.11-.27-.26-.5-.45-.7-.19-.19-.4-.34-.65-.44-.25-.1-.51-.16-.79-.16s-.54.05-.79.16c-.25.1-.46.25-.65.44s-.34.42-.45.7c-.11.27-.17.58-.17.91Z"/>
          <path class="cls-2" d="M266.02,91.53c0-.71.1-1.36.31-1.94.2-.58.49-1.08.85-1.49.36-.42.8-.73,1.31-.96.51-.22,1.06-.33,1.66-.33.46,0,.83.05,1.13.14.3.09.54.2.73.32.21.13.38.28.51.44h.04s-.02-.08-.02-.12v-3.11c0-.64.32-.96.97-.96h1.11c.64,0,.96.32.96.96v10.62c0,.64-.32.96-.96.96h-.91c-.64,0-.96-.29-.96-.88v-.18s0-.03.02-.05h-.04c-.16.25-.37.47-.61.67-.21.16-.48.31-.81.45-.33.13-.73.2-1.19.2-.62,0-1.18-.11-1.68-.34-.5-.23-.92-.55-1.28-.97s-.63-.92-.82-1.5-.29-1.22-.29-1.92h-.03ZM269.07,91.53c0,.68.16,1.22.49,1.63.33.41.75.61,1.28.61.22,0,.44-.04.66-.13s.41-.22.57-.41.3-.41.39-.7c.1-.28.15-.62.15-1,0-.27-.04-.53-.11-.79-.07-.26-.18-.49-.33-.7s-.34-.37-.56-.49c-.22-.12-.48-.19-.77-.19-.48,0-.89.19-1.25.55-.35.37-.53.91-.53,1.61h0Z"/>
          <path class="cls-2" d="M282.69,97.52c.12-.31.27-.5.46-.59s.44-.08.77.03c.22.07.46.13.71.18s.55.07.9.07c.28,0,.55-.03.81-.09s.48-.15.68-.28c.19-.13.35-.3.46-.52.12-.22.18-.5.18-.84v-.67s0-.09.02-.12h-.04c-.25.36-.54.64-.89.83-.34.19-.79.28-1.32.28-.69,0-1.3-.13-1.82-.39-.52-.26-.95-.6-1.29-1.02s-.59-.9-.76-1.45c-.17-.54-.25-1.11-.25-1.69s.08-1.13.25-1.66c.16-.53.42-1.01.76-1.42.35-.42.78-.75,1.3-.99.52-.25,1.13-.37,1.83-.37.49,0,.89.06,1.2.18s.56.26.76.41c.21.17.38.37.51.58h.04s-.02-.03-.02-.05v-.16c0-.21.08-.39.25-.54.16-.15.4-.22.72-.22h.83c.64,0,.96.32.96.97v7.25c0,.83-.15,1.53-.46,2.1-.3.57-.7,1.03-1.18,1.39s-1.01.62-1.61.78c-.59.16-1.17.24-1.75.24-.53,0-1.04-.04-1.54-.13s-.88-.19-1.15-.31c-.57-.24-.75-.65-.53-1.25l.19-.53h.02ZM286.09,93.25c.2,0,.4-.03.59-.09s.37-.16.53-.3.28-.34.38-.6c.09-.25.14-.58.14-.97s-.05-.72-.15-.96c-.1-.25-.23-.45-.39-.59s-.34-.24-.56-.29-.44-.08-.66-.08c-.54,0-.94.17-1.21.5-.27.34-.4.76-.4,1.29,0,.28.04.54.1.8.07.25.18.48.32.67s.32.34.54.46.48.17.78.17h-.01Z"/>
          <path class="cls-2" d="M291.99,91.57c0-.71.13-1.36.4-1.95.27-.58.63-1.08,1.1-1.5.46-.42,1-.74,1.62-.96.62-.23,1.28-.34,1.98-.34s1.38.11,2.01.34c.63.23,1.17.55,1.63.96.46.42.83.92,1.1,1.5.27.58.4,1.23.4,1.95s-.13,1.34-.4,1.92-.63,1.08-1.1,1.49-1,.73-1.62.96c-.62.22-1.29.33-2,.33s-1.38-.11-2-.33-1.16-.54-1.62-.96-.83-.91-1.1-1.49c-.27-.58-.4-1.22-.4-1.92h0ZM295.06,91.57c0,.34.05.64.17.91.11.27.26.49.45.68s.4.33.65.43.51.15.79.15.54-.05.79-.15.46-.24.65-.43.34-.41.45-.68c.11-.27.17-.57.17-.91s-.06-.64-.17-.91c-.11-.27-.26-.5-.45-.7-.19-.19-.4-.34-.65-.44-.25-.1-.51-.16-.79-.16s-.54.05-.79.16c-.25.1-.46.25-.65.44s-.34.42-.45.7c-.11.27-.17.58-.17.91Z"/>
          <path class="cls-2" d="M302.72,88.13c-.12-.34-.1-.61.04-.81s.39-.3.75-.3h1.18c.56,0,.92.27,1.07.81l1.18,4c.05.15.09.32.12.49.04.17.07.34.1.51.04.19.07.37.11.56h.04c.02-.19.06-.37.11-.56.02-.16.06-.33.1-.51s.08-.34.13-.49l1.16-4c.15-.54.51-.81,1.07-.81h1.21c.35,0,.6.1.75.3s.16.47.04.81l-2.44,7.14c-.17.53-.54.79-1.09.79h-2.05c-.55,0-.91-.26-1.09-.79l-2.47-7.14h-.02Z"/>
          <path class="cls-2" d="M312.39,91.53c0-.67.11-1.29.33-1.86s.53-1.07.93-1.49.9-.75,1.48-1c.58-.25,1.24-.37,1.97-.37.67,0,1.26.11,1.78.33s.96.53,1.32.91c.36.39.63.84.81,1.37.18.53.27,1.09.27,1.7,0,.23-.09.46-.28.68s-.43.32-.74.32h-4.75c.12.56.37.96.77,1.21s.84.38,1.33.38c.3,0,.6-.04.88-.12s.54-.18.77-.3c.29-.13.54-.17.75-.12.21.05.39.21.54.49l.25.46c.14.27.19.52.14.75s-.21.42-.47.57c-.33.19-.75.37-1.27.55s-1.13.27-1.83.27c-.81,0-1.52-.13-2.14-.4-.62-.27-1.14-.62-1.55-1.06s-.73-.94-.95-1.52c-.22-.57-.33-1.16-.33-1.75h-.01ZM318.27,90.39c0-.37-.11-.69-.33-.96-.22-.26-.53-.39-.91-.39-.45,0-.78.13-1,.4-.22.27-.38.58-.46.95h2.7,0Z"/>
          <path class="cls-2" d="M322.52,87.99c0-.64.32-.97.97-.97h.98c.64,0,.96.32.96.97v.95c-.01.06-.02.12-.02.18h.04c.07-.23.18-.48.33-.74.15-.26.33-.49.54-.7.21-.21.45-.39.71-.53.26-.14.54-.21.82-.21.3,0,.52.08.64.25.12.16.18.4.18.72v.98c0,.64-.32.96-.96.96-.36,0-.68.07-.95.22-.27.15-.49.34-.67.59-.18.25-.31.53-.39.86-.09.33-.13.67-.13,1.04v2.54c0,.64-.32.96-.96.96h-1.11c-.64,0-.97-.32-.97-.96v-7.11h-.01Z"/>
          <path class="cls-2" d="M329.62,87.99c0-.64.32-.97.97-.97h.98c.63,0,.95.32.95.97v.39h.04c.11-.18.24-.36.4-.54.16-.19.36-.35.6-.5s.51-.27.82-.37c.31-.1.66-.15,1.06-.15.46,0,.88.06,1.28.18s.74.31,1.03.57.51.61.68,1.04c.17.43.25.96.25,1.6v4.9c0,.64-.32.96-.96.96h-1.11c-.64,0-.97-.32-.97-.96v-4.33c0-.42-.08-.73-.25-.91-.16-.19-.42-.28-.75-.28s-.63.06-.88.19c-.25.13-.45.3-.61.53-.16.22-.28.48-.36.77-.08.29-.11.6-.11.91v3.12c0,.64-.32.96-.96.96h-1.11c-.64,0-.97-.32-.97-.96v-7.11h-.02Z"/>
          <path class="cls-2" d="M339.71,93.52c0-.61.16-1.11.48-1.51s.73-.71,1.24-.95c.5-.23,1.05-.4,1.65-.49s1.18-.14,1.74-.14h.26v-.16c0-.38-.13-.63-.39-.78s-.56-.22-.89-.22c-.29,0-.58.04-.86.12s-.54.18-.77.28c-.6.26-1.03.12-1.3-.42l-.21-.44c-.13-.27-.16-.52-.11-.75.06-.23.22-.41.49-.55.34-.16.77-.32,1.28-.47s1.1-.23,1.75-.23c1.25,0,2.24.32,2.96.97s1.08,1.55,1.08,2.71v4.6c0,.64-.32.96-.96.96h-.84c-.64,0-.96-.33-.96-.98v-.19s0-.04.02-.05h-.04c-.17.27-.39.51-.65.72-.22.19-.5.35-.84.5s-.73.22-1.18.22-.83-.07-1.19-.21-.67-.33-.93-.58c-.26-.25-.46-.54-.61-.88s-.22-.7-.22-1.09h0ZM342.71,93.24c0,.21.07.39.22.54s.36.23.64.23c.22,0,.43-.05.61-.15.19-.1.35-.22.49-.38.14-.15.25-.32.33-.51s.11-.38.11-.56v-.25h-.28c-.23,0-.48.02-.73.05-.25.04-.48.09-.68.18-.21.08-.38.19-.51.32s-.2.31-.2.52h0Z"/>
          <path class="cls-2" d="M349.77,87.99c0-.64.32-.97.97-.97h.98c.63,0,.95.32.95.97v.39h.04c.11-.18.24-.36.4-.54.16-.19.36-.35.6-.5s.51-.27.82-.37c.31-.1.66-.15,1.06-.15.46,0,.88.06,1.28.18s.74.31,1.03.57.51.61.68,1.04c.17.43.25.96.25,1.6v4.9c0,.64-.32.96-.96.96h-1.11c-.64,0-.97-.32-.97-.96v-4.33c0-.42-.08-.73-.25-.91-.16-.19-.42-.28-.75-.28s-.63.06-.88.19c-.25.13-.45.3-.61.53-.16.22-.28.48-.36.77-.08.29-.11.6-.11.91v3.12c0,.64-.32.96-.96.96h-1.11c-.64,0-.97-.32-.97-.96v-7.11h-.02Z"/>
          <path class="cls-2" d="M359.96,91.53c0-.61.11-1.2.33-1.76.22-.57.55-1.07.97-1.51s.95-.79,1.58-1.05c.63-.26,1.34-.39,2.15-.39.69,0,1.28.08,1.75.26s.87.36,1.16.56c.25.17.38.36.41.59.03.23-.04.47-.2.73l-.3.46c-.16.27-.35.42-.56.45s-.46-.03-.74-.17c-.17-.09-.37-.17-.6-.24-.22-.06-.47-.1-.74-.1-.36,0-.68.06-.95.18-.27.12-.49.29-.67.49-.18.2-.32.43-.4.69-.09.26-.13.52-.13.78s.05.53.14.8c.09.27.23.5.42.71s.42.38.7.51c.28.13.61.2,1,.2.3,0,.6-.05.88-.16s.53-.22.75-.35c.29-.16.55-.22.76-.17s.4.22.55.51l.23.44c.13.27.17.52.14.74-.04.22-.17.42-.4.58-.32.21-.74.42-1.28.64-.54.21-1.18.32-1.93.32-.81,0-1.52-.13-2.15-.39s-1.15-.61-1.58-1.04-.75-.94-.97-1.52c-.22-.57-.33-1.17-.33-1.79h0Z"/>
          <path class="cls-2" d="M369.09,91.53c0-.67.11-1.29.33-1.86s.53-1.07.93-1.49.9-.75,1.48-1c.58-.25,1.24-.37,1.97-.37.67,0,1.26.11,1.78.33s.96.53,1.32.91c.36.39.63.84.81,1.37.18.53.27,1.09.27,1.7,0,.23-.09.46-.28.68s-.43.32-.74.32h-4.75c.12.56.37.96.77,1.21s.84.38,1.33.38c.3,0,.6-.04.88-.12s.54-.18.77-.3c.29-.13.54-.17.75-.12.21.05.39.21.54.49l.25.46c.14.27.19.52.14.75s-.21.42-.47.57c-.33.19-.75.37-1.27.55s-1.13.27-1.83.27c-.81,0-1.52-.13-2.14-.4-.62-.27-1.14-.62-1.55-1.06s-.73-.94-.95-1.52c-.22-.57-.33-1.16-.33-1.75h-.01ZM374.97,90.39c0-.37-.11-.69-.33-.96-.22-.26-.53-.39-.91-.39-.45,0-.78.13-1,.4-.22.27-.38.58-.46.95h2.7,0Z"/>
        </g>
        <g>
          <path class="cls-1" d="M107.88,45.48c0-3.59.61-6.89,1.84-9.89,1.23-3,2.93-5.58,5.12-7.75s4.8-3.87,7.82-5.09c3.02-1.23,6.33-1.84,9.92-1.84,1.88,0,3.65.15,5.29.46s3.12.67,4.43,1.08c1.31.42,2.44.87,3.38,1.35s1.65.9,2.14,1.25c1.01.75,1.57,1.51,1.67,2.3.11.79-.14,1.69-.75,2.69l-1.71,2.69c-.61,1.01-1.33,1.57-2.13,1.67-.81.11-1.76-.12-2.86-.69s-2.31-1.09-3.65-1.58c-1.34-.48-3.03-.72-5.09-.72-2.37,0-4.39.36-6.08,1.08-1.69.72-3.09,1.71-4.2,2.96-1.12,1.25-1.94,2.68-2.46,4.3-.53,1.62-.79,3.31-.79,5.06,0,2.19.36,4.15,1.08,5.88s1.69,3.21,2.89,4.43c1.2,1.23,2.62,2.17,4.24,2.83,1.62.66,3.33.99,5.12.99,1.66,0,3.11-.2,4.34-.59s2.23-.83,3.02-1.31c.92-.53,1.69-1.16,2.3-1.91v-3.22h-3.02c-2.41,0-3.61-1.2-3.61-3.61v-2.56c0-2.41,1.2-3.61,3.61-3.61h9.59c2.41,0,3.61,1.21,3.61,3.61v19.32c0,2.41-1.21,3.61-3.61,3.61h-2.17c-1.18,0-2.08-.27-2.69-.82s-.92-1.22-.92-2v-.59c0-.09.02-.15.07-.2h-.13c-.83.83-1.86,1.58-3.09,2.23-1.05.57-2.36,1.07-3.91,1.51-1.56.44-3.38.66-5.49.66-3.02,0-5.92-.56-8.7-1.67-2.78-1.12-5.25-2.7-7.39-4.76-2.15-2.06-3.85-4.58-5.12-7.55-1.27-2.98-1.91-6.31-1.91-9.99h0Z"/>
          <path class="cls-1" d="M157.42,51.85c0-2.67.5-5.1,1.51-7.29,1.01-2.19,2.38-4.06,4.11-5.62,1.73-1.55,3.75-2.76,6.08-3.61,2.32-.85,4.8-1.28,7.42-1.28s5.18.43,7.52,1.28c2.34.85,4.38,2.06,6.11,3.61,1.73,1.56,3.1,3.43,4.11,5.62s1.51,4.62,1.51,7.29-.5,5.03-1.51,7.19c-1.01,2.17-2.38,4.03-4.11,5.58-1.73,1.55-3.76,2.75-6.08,3.58s-4.82,1.25-7.49,1.25-5.17-.42-7.49-1.25-4.35-2.03-6.08-3.58c-1.73-1.55-3.1-3.42-4.11-5.58s-1.51-4.57-1.51-7.19h.01ZM168.92,51.85c0,1.26.21,2.39.62,3.39.42,1,.97,1.85,1.68,2.54.7.7,1.51,1.23,2.43,1.6s1.91.55,2.96.55,2.04-.18,2.96-.55c.92-.37,1.73-.9,2.43-1.6.7-.69,1.26-1.54,1.67-2.54.42-1,.62-2.13.62-3.39s-.21-2.4-.62-3.42c-.42-1.02-.97-1.89-1.67-2.61s-1.51-1.27-2.43-1.66-1.91-.59-2.96-.59-2.04.2-2.96.59c-.92.39-1.73.95-2.43,1.66-.7.72-1.26,1.59-1.68,2.61s-.62,2.16-.62,3.42Z"/>
          <path class="cls-1" d="M198.61,38.98c-.44-1.27-.39-2.28.13-3.02.53-.74,1.47-1.12,2.83-1.12h4.4c2.1,0,3.44,1.01,4.01,3.02l4.4,14.98c.17.57.33,1.18.46,1.84s.26,1.29.39,1.9c.13.7.26,1.4.39,2.1h.13c.09-.7.22-1.4.39-2.1.09-.61.21-1.25.36-1.9.15-.66.32-1.27.49-1.84l4.34-14.98c.57-2.01,1.91-3.02,4.01-3.02h4.53c1.31,0,2.24.37,2.79,1.12.55.75.6,1.75.16,3.02l-9.13,26.74c-.66,1.97-2.01,2.96-4.07,2.96h-7.69c-2.06,0-3.42-.99-4.07-2.96l-9.26-26.74h.01Z"/>
          <path class="cls-1" d="M235.73,51.72c0-2.5.4-4.82,1.22-6.96.81-2.15,1.97-4.01,3.48-5.58,1.51-1.58,3.36-2.83,5.55-3.75s4.64-1.38,7.36-1.38c2.5,0,4.72.42,6.67,1.25s3.59,1.97,4.93,3.42c1.33,1.45,2.34,3.15,3.02,5.12.68,1.97,1.02,4.1,1.02,6.37,0,.88-.35,1.72-1.05,2.53-.7.81-1.62,1.21-2.76,1.21h-17.8c.44,2.08,1.4,3.6,2.89,4.55s3.15,1.43,4.99,1.43c1.14,0,2.23-.15,3.28-.46,1.05-.31,2.01-.68,2.89-1.12,1.09-.48,2.04-.63,2.83-.46.79.18,1.47.79,2.04,1.84l.92,1.72c.53,1.01.7,1.95.53,2.81-.18.86-.77,1.58-1.77,2.15-1.23.71-2.81,1.39-4.76,2.05s-4.24.99-6.87.99c-3.02,0-5.69-.5-8.02-1.51s-4.26-2.33-5.81-3.97-2.74-3.54-3.55-5.68c-.81-2.15-1.22-4.34-1.22-6.57h-.01ZM257.74,47.45c0-1.4-.42-2.59-1.25-3.58-.83-.99-1.97-1.48-3.42-1.48-1.67,0-2.91.5-3.75,1.51-.83,1.01-1.4,2.19-1.71,3.55h10.13Z"/>
          <path class="cls-1" d="M273.97,38.45c0-2.41,1.2-3.61,3.61-3.61h3.68c2.41,0,3.61,1.21,3.61,3.61v2.1c0,.31-.01.57-.03.79s-.03.44-.03.66c-.04.22-.07.44-.07.66h.13c.26-.88.68-1.79,1.25-2.76.57-.96,1.25-1.84,2.04-2.63s1.68-1.45,2.66-1.97c.99-.53,2-.79,3.05-.79,1.14,0,1.94.31,2.4.92.46.61.69,1.51.69,2.69v3.68c0,2.41-1.21,3.61-3.61,3.61-1.36,0-2.54.27-3.55.82-1.01.55-1.84,1.28-2.5,2.2-.66.92-1.15,1.99-1.48,3.22-.33,1.23-.49,2.52-.49,3.88v9.53c0,2.41-1.21,3.61-3.61,3.61h-4.14c-2.41,0-3.61-1.2-3.61-3.61,0,0,0-26.61,0-26.61Z"/>
          <path class="cls-1" d="M300.9,38.45c0-2.41,1.2-3.61,3.61-3.61h3.68c2.37,0,3.55,1.21,3.55,3.61v.59c0,.09-.01.18-.03.26-.02.09-.03.18-.03.26v.33h.13c.39-.66.9-1.34,1.51-2.04.61-.7,1.36-1.32,2.23-1.87.88-.55,1.89-1.01,3.05-1.38,1.16-.37,2.49-.56,3.98-.56,1.71,0,3.31.22,4.8.66s2.77,1.15,3.84,2.13c1.07.99,1.93,2.29,2.56,3.91s.95,3.61.95,5.98v18.33c0,2.41-1.21,3.61-3.61,3.61h-4.14c-2.41,0-3.61-1.2-3.61-3.61v-16.23c0-1.58-.31-2.71-.92-3.42-.61-.7-1.55-1.05-2.83-1.05s-2.37.24-3.28.72c-.92.48-1.69,1.14-2.3,1.97s-1.06,1.8-1.35,2.89-.43,2.23-.43,3.42v11.69c0,2.41-1.21,3.61-3.61,3.61h-4.14c-2.41,0-3.61-1.2-3.61-3.61v-26.61.02Z"/>
          <path class="cls-1" d="M352.41,24.65c.66-1.97,2.01-2.96,4.07-2.96h5.91c2.06,0,3.42.99,4.07,2.96l13.6,39.88c.44,1.27.38,2.28-.16,3.02-.55.75-1.48,1.12-2.79,1.12h-4.34c-2.06,0-3.42-1.01-4.07-3.02l-1.97-6.83h-14.65l-1.97,6.83c-.57,2.02-1.91,3.02-4.01,3.02h-4.34c-1.31,0-2.25-.37-2.79-1.12-.55-.74-.6-1.75-.16-3.02,0,0,13.6-39.88,13.6-39.88ZM364.04,49.61l-2.63-9.13c-.22-.74-.43-1.58-.62-2.5s-.41-1.8-.62-2.63c-.22-.96-.44-1.95-.66-2.96h-.13c-.22,1.01-.44,1.99-.66,2.96-.22.83-.43,1.71-.62,2.63-.2.92-.41,1.75-.62,2.5l-2.69,9.13h9.26-.01Z"/>
          <path class="cls-1" d="M384.66,38.45c0-2.41,1.2-3.61,3.61-3.61h2.96c1.18,0,2.08.27,2.69.82.61.55.92,1.26.92,2.13v.72c0,.09-.01.16-.03.23s-.03.14-.03.23v.2h.13c.66-.92,1.47-1.77,2.43-2.56.83-.61,1.88-1.19,3.15-1.74,1.27-.55,2.83-.82,4.67-.82,2.28,0,4.36.43,6.24,1.28s3.49,2.07,4.83,3.65c1.33,1.58,2.37,3.45,3.09,5.62s1.08,4.57,1.08,7.19-.39,5.09-1.18,7.26c-.79,2.17-1.9,4.03-3.32,5.58s-3.1,2.75-5.03,3.58-4.01,1.25-6.24,1.25c-1.53,0-2.84-.2-3.91-.59s-1.96-.83-2.66-1.31c-.79-.57-1.47-1.23-2.04-1.97h-.13c0,.22.02.48.07.79,0,.26,0,.57.03.92.02.35.03.75.03,1.18v9.72c0,2.41-1.21,3.61-3.61,3.61h-4.14c-2.41,0-3.61-1.21-3.61-3.61v-39.75h0ZM395.7,51.95c0,1.01.13,2.01.39,3s.68,1.86,1.25,2.61,1.26,1.35,2.07,1.81,1.78.69,2.92.69c1.8,0,3.35-.69,4.67-2.08,1.31-1.38,1.97-3.4,1.97-6.03s-.61-4.58-1.84-6.1c-1.23-1.52-2.83-2.28-4.8-2.28-.88,0-1.71.17-2.5.5s-1.49.83-2.1,1.52c-.61.68-1.11,1.55-1.48,2.61-.37,1.06-.56,2.31-.56,3.76h0Z"/>
          <path class="cls-1" d="M425.73,38.45c0-2.41,1.2-3.61,3.61-3.61h2.96c1.18,0,2.08.27,2.69.82.61.55.92,1.26.92,2.13v.72c0,.09-.01.16-.03.23s-.03.14-.03.23v.2h.13c.66-.92,1.47-1.77,2.43-2.56.83-.61,1.88-1.19,3.15-1.74,1.27-.55,2.83-.82,4.67-.82,2.28,0,4.36.43,6.24,1.28s3.49,2.07,4.83,3.65c1.33,1.58,2.37,3.45,3.09,5.62s1.08,4.57,1.08,7.19-.39,5.09-1.18,7.26c-.79,2.17-1.9,4.03-3.32,5.58s-3.1,2.75-5.03,3.58-4.01,1.25-6.24,1.25c-1.53,0-2.84-.2-3.91-.59s-1.96-.83-2.66-1.31c-.79-.57-1.47-1.23-2.04-1.97h-.13c0,.22.02.48.07.79,0,.26,0,.57.03.92.02.35.03.75.03,1.18v9.72c0,2.41-1.21,3.61-3.61,3.61h-4.14c-2.41,0-3.61-1.21-3.61-3.61v-39.75h0ZM436.77,51.95c0,1.01.13,2.01.39,3s.68,1.86,1.25,2.61,1.26,1.35,2.07,1.81,1.78.69,2.92.69c1.8,0,3.35-.69,4.67-2.08,1.31-1.38,1.97-3.4,1.97-6.03s-.61-4.58-1.84-6.1c-1.23-1.52-2.83-2.28-4.8-2.28-.88,0-1.71.17-2.5.5s-1.49.83-2.1,1.52c-.61.68-1.11,1.55-1.48,2.61-.37,1.06-.56,2.31-.56,3.76h0Z"/>
        </g>
        <path class="cls-2" d="M86.96.03l-31.79,3.74c-3.09.36-4.4,4.13-2.2,6.33l28.05,28.05c2.2,2.2,5.97.89,6.33-2.2l3.74-31.79c.28-2.39-1.74-4.42-4.13-4.13Z"/>
        <path class="cls-3" d="M61.02,25.96l-31.79,3.74c-3.09.36-4.4,4.13-2.2,6.33l28.05,28.05c2.2,2.2,5.97.89,6.33-2.2l3.74-31.79c.28-2.39-1.74-4.42-4.13-4.13Z"/>
        <path class="cls-1" d="M35.08,51.9l-31.79,3.74c-3.09.36-4.4,4.13-2.2,6.33l28.05,28.05c2.2,2.2,5.97.89,6.33-2.2l3.74-31.79c.28-2.39-1.74-4.42-4.13-4.13Z"/>
      </g>
    </g>
  </g>
</svg>