<?xml version="1.0" encoding="UTF-8"?>
<svg id="Layer_2" data-name="Layer 2" xmlns="http://www.w3.org/2000/svg" viewBox="0 0 241.5 241.48">
  <defs>
    <style>
      .cls-1 {
        fill: #838bc5;
      }

      .cls-2 {
        fill: #1eb2aa;
      }

      .cls-3 {
        fill: #6d3183;
      }
    </style>
  </defs>
  <g id="Layer_1-2" data-name="Layer 1">
    <path class="cls-3" d="M92.99,137.55l-84.26,9.91c-8.19.95-11.66,10.95-5.83,16.78l74.34,74.34c5.83,5.83,15.82,2.36,16.78-5.83l9.91-84.26c.74-6.33-4.61-11.71-10.95-10.95Z"/>
  </g>
  <g id="Layer_2-2" data-name="Layer 2">
    <path class="cls-1" d="M161.74,68.8l-84.26,9.91c-8.19.95-11.66,10.95-5.83,16.78l74.34,74.34c5.83,5.83,15.82,2.36,16.78-5.83l9.91-84.26c.74-6.33-4.61-11.71-10.95-10.95Z"/>
  </g>
  <g id="Layer_3" data-name="Layer 3">
    <path class="cls-2" d="M230.49.07l-84.26,9.91c-8.19.95-11.66,10.95-5.83,16.78l74.34,74.34c5.83,5.83,15.82,2.36,16.78-5.83l9.91-84.26c.74-6.33-4.61-11.71-10.95-10.95Z"/>
  </g>
</svg>