<?xml version="1.0" encoding="UTF-8"?>
<svg id="Layer_2" data-name="Layer 2" xmlns="http://www.w3.org/2000/svg" viewBox="0 0 150.36 150.34">
  <defs>
    <style>
      .cls-1 {
        fill: none;
        stroke: #fff;
        stroke-opacity: 0.1;
        stroke-miterlimit: 10;
        stroke-width: 1px;
      }
    </style>
  </defs>
  <g id="Layer_2-2" data-name="Layer 2">
    <path class="cls-1" d="M150.07,8.25c.08-.65.06-1.28-.03-1.89v2.17l.03-.29Z"/>
    <path class="cls-1" d="M142.12.3h1.73c-.56-.07-1.14-.07-1.73,0Z"/>
    <path class="cls-1" d="M7.29.3l23.45,23.45c4.23,4.23,11.48,1.71,12.18-4.23L45.18.3"/>
    <line class="cls-1" x1=".18" y1="143.05" x2="7.29" y2="150.16"/>
    <path class="cls-1" d="M45.18,150.16l4.93-41.94c.54-4.6-3.35-8.5-7.94-7.94L.18,105.22"/>
    <path class="cls-1" d="M92.48,49.96l-61.15,7.19c-5.94.69-8.46,7.94-4.23,12.18l53.96,53.96c4.23,4.23,11.48,1.71,12.18-4.23l7.19-61.15c.54-4.6-3.35-8.5-7.94-7.94Z"/>
    <path class="cls-1" d="M76.74,19.67l53.96,53.96c4.23,4.23,11.48,1.71,12.18-4.23l7.16-60.87v-2.17c-.46-3.16-3-5.67-6.19-6.06h-1.73l-61.15,7.19c-5.94.69-8.46,7.94-4.23,12.18Z"/>
    <path class="cls-1" d="M150.03,105.22l-19.16,2.25c-5.94.69-8.46,7.94-4.23,12.18l23.4,23.4"/>
  </g>
</svg>